<?xml version="1.0" encoding="UTF-8" standalone="no"?>
<!DOCTYPE svg PUBLIC "-//W3C//DTD SVG 1.1//EN"
 "http://www.w3.org/Graphics/SVG/1.1/DTD/svg11.dtd">
<!-- Generated by graphviz version 2.47.0 (20210316.0004)
 -->
<!-- Title: dependency&#45;cruiser output Pages: 1 -->
<svg width="352pt" height="954pt"
 viewBox="0.00 0.00 351.50 954.00" xmlns="http://www.w3.org/2000/svg" xmlns:xlink="http://www.w3.org/1999/xlink">
<g id="graph0" class="graph" transform="scale(1 1) rotate(0) translate(4 950)">
<title>dependency&#45;cruiser output</title>
<polygon fill="white" stroke="transparent" points="-4,4 -4,-950 347.5,-950 347.5,4 -4,4"/>
<g id="clust1" class="cluster">
<title>cluster_@popperjs</title>
<path fill="#ffffff" stroke="black" stroke-width="2" d="M146.5,-8C146.5,-8 192.5,-8 192.5,-8 198.5,-8 204.5,-14 204.5,-20 204.5,-20 204.5,-48 204.5,-48 204.5,-54 198.5,-60 192.5,-60 192.5,-60 146.5,-60 146.5,-60 140.5,-60 134.5,-54 134.5,-48 134.5,-48 134.5,-20 134.5,-20 134.5,-14 140.5,-8 146.5,-8"/>
<text text-anchor="middle" x="169.5" y="-48.8" font-family="Helvetica,sans-Serif" font-weight="bold" font-size="9.00">@popperjs</text>
</g>
<g id="clust2" class="cluster">
<title>cluster_archives</title>
<path fill="#ffffff" stroke="black" stroke-width="2" d="M49,-368C49,-368 97,-368 97,-368 103,-368 109,-374 109,-380 109,-380 109,-438 109,-438 109,-444 103,-450 97,-450 97,-450 49,-450 49,-450 43,-450 37,-444 37,-438 37,-438 37,-380 37,-380 37,-374 43,-368 49,-368"/>
<text text-anchor="middle" x="73" y="-438.8" font-family="Helvetica,sans-Serif" font-weight="bold" font-size="9.00">archives</text>
</g>
<g id="clust3" class="cluster">
<title>cluster_external</title>
<path fill="#ffffff" stroke="black" stroke-width="2" d="M41.5,-8C41.5,-8 104.5,-8 104.5,-8 110.5,-8 116.5,-14 116.5,-20 116.5,-20 116.5,-348 116.5,-348 116.5,-354 110.5,-360 104.5,-360 104.5,-360 41.5,-360 41.5,-360 35.5,-360 29.5,-354 29.5,-348 29.5,-348 29.5,-20 29.5,-20 29.5,-14 35.5,-8 41.5,-8"/>
<text text-anchor="middle" x="73" y="-348.8" font-family="Helvetica,sans-Serif" font-weight="bold" font-size="9.00">external</text>
</g>
<g id="clust4" class="cluster">
<title>cluster_src</title>
<path fill="#ffffff" stroke="black" stroke-width="2" d="M20,-484C20,-484 323.5,-484 323.5,-484 329.5,-484 335.5,-490 335.5,-496 335.5,-496 335.5,-926 335.5,-926 335.5,-932 329.5,-938 323.5,-938 323.5,-938 20,-938 20,-938 14,-938 8,-932 8,-926 8,-926 8,-496 8,-496 8,-490 14,-484 20,-484"/>
<text text-anchor="middle" x="171.75" y="-926.8" font-family="Helvetica,sans-Serif" font-weight="bold" font-size="9.00">src</text>
</g>
<g id="clust5" class="cluster">
<title>cluster_src/backend</title>
<path fill="#ffffff" stroke="black" stroke-width="2" d="M136.5,-766C136.5,-766 202.5,-766 202.5,-766 208.5,-766 214.5,-772 214.5,-778 214.5,-778 214.5,-900 214.5,-900 214.5,-906 208.5,-912 202.5,-912 202.5,-912 136.5,-912 136.5,-912 130.5,-912 124.5,-906 124.5,-900 124.5,-900 124.5,-778 124.5,-778 124.5,-772 130.5,-766 136.5,-766"/>
<text text-anchor="middle" x="169.5" y="-900.8" font-family="Helvetica,sans-Serif" font-weight="bold" font-size="9.00">backend</text>
</g>
<g id="clust6" class="cluster">
<title>cluster_src/backend/js</title>
<path fill="#ffffff" stroke="black" stroke-width="2" d="M144.5,-774C144.5,-774 194.5,-774 194.5,-774 200.5,-774 206.5,-780 206.5,-786 206.5,-786 206.5,-874 206.5,-874 206.5,-880 200.5,-886 194.5,-886 194.5,-886 144.5,-886 144.5,-886 138.5,-886 132.5,-880 132.5,-874 132.5,-874 132.5,-786 132.5,-786 132.5,-780 138.5,-774 144.5,-774"/>
<text text-anchor="middle" x="169.5" y="-874.8" font-family="Helvetica,sans-Serif" font-weight="bold" font-size="9.00">js</text>
</g>
<g id="clust7" class="cluster">
<title>cluster_src/popup</title>
<path fill="#ffffff" stroke="black" stroke-width="2" d="M28,-492C28,-492 315.5,-492 315.5,-492 321.5,-492 327.5,-498 327.5,-504 327.5,-504 327.5,-746 327.5,-746 327.5,-752 321.5,-758 315.5,-758 315.5,-758 28,-758 28,-758 22,-758 16,-752 16,-746 16,-746 16,-504 16,-504 16,-498 22,-492 28,-492"/>
<text text-anchor="middle" x="171.75" y="-746.8" font-family="Helvetica,sans-Serif" font-weight="bold" font-size="9.00">popup</text>
</g>
<g id="clust8" class="cluster">
<title>cluster_src/popup/js</title>
<path fill="#ffffff" stroke="black" stroke-width="2" d="M36,-500C36,-500 307.5,-500 307.5,-500 313.5,-500 319.5,-506 319.5,-512 319.5,-512 319.5,-720 319.5,-720 319.5,-726 313.5,-732 307.5,-732 307.5,-732 36,-732 36,-732 30,-732 24,-726 24,-720 24,-720 24,-512 24,-512 24,-506 30,-500 36,-500"/>
<text text-anchor="middle" x="171.75" y="-720.8" font-family="Helvetica,sans-Serif" font-weight="bold" font-size="9.00">js</text>
</g>
<!-- @popperjs/core -->
<g id="node1" class="node">
<title>@popperjs/core</title>
<path fill="#ffffcc" stroke="red" d="M190.5,-34C190.5,-34 148.5,-34 148.5,-34 145.5,-34 142.5,-31 142.5,-28 142.5,-28 142.5,-22 142.5,-22 142.5,-19 145.5,-16 148.5,-16 148.5,-16 190.5,-16 190.5,-16 193.5,-16 196.5,-19 196.5,-22 196.5,-22 196.5,-28 196.5,-28 196.5,-31 193.5,-34 190.5,-34"/>
<text text-anchor="middle" x="169.5" y="-22.8" font-family="Helvetica,sans-Serif" font-size="9.00" fill="red">core</text>
</g>
<!-- archives/archive.js -->
<g id="node2" class="node">
<title>archives/archive.js</title>
<g id="a_node2"><a xlink:href="archives/archive.js" xlink:title="archive.js">
<path fill="#ccffcc" stroke="black" d="M95,-424C95,-424 51,-424 51,-424 48,-424 45,-421 45,-418 45,-418 45,-412 45,-412 45,-409 48,-406 51,-406 51,-406 95,-406 95,-406 98,-406 101,-409 101,-412 101,-412 101,-418 101,-418 101,-421 98,-424 95,-424"/>
<text text-anchor="middle" x="73" y="-412.8" font-family="Helvetica,sans-Serif" font-size="9.00">archive.js</text>
</a>
</g>
</g>
<!-- archives/test.js -->
<g id="node3" class="node">
<title>archives/test.js</title>
<g id="a_node3"><a xlink:href="archives/test.js" xlink:title="test.js">
<path fill="#ccffcc" stroke="black" d="M94,-394C94,-394 52,-394 52,-394 49,-394 46,-391 46,-388 46,-388 46,-382 46,-382 46,-379 49,-376 52,-376 52,-376 94,-376 94,-376 97,-376 100,-379 100,-382 100,-382 100,-388 100,-388 100,-391 97,-394 94,-394"/>
<text text-anchor="middle" x="73" y="-382.8" font-family="Helvetica,sans-Serif" font-size="9.00">test.js</text>
</a>
</g>
</g>
<!-- background.js -->
<g id="node4" class="node">
<title>background.js</title>
<g id="a_node4"><a xlink:href="background.js" xlink:title="background.js">
<path fill="#ccffcc" stroke="black" d="M104,-476C104,-476 42,-476 42,-476 39,-476 36,-473 36,-470 36,-470 36,-464 36,-464 36,-461 39,-458 42,-458 42,-458 104,-458 104,-458 107,-458 110,-461 110,-464 110,-464 110,-470 110,-470 110,-473 107,-476 104,-476"/>
<text text-anchor="middle" x="73" y="-464.8" font-family="Helvetica,sans-Serif" font-size="9.00">background.js</text>
</a>
</g>
</g>
<!-- external/Chart.min.js -->
<g id="node5" class="node">
<title>external/Chart.min.js</title>
<g id="a_node5"><a xlink:href="external/Chart.min.js" xlink:title="Chart.min.js">
<path fill="#ffffcc" stroke="black" d="M99.5,-334C99.5,-334 46.5,-334 46.5,-334 43.5,-334 40.5,-331 40.5,-328 40.5,-328 40.5,-322 40.5,-322 40.5,-319 43.5,-316 46.5,-316 46.5,-316 99.5,-316 99.5,-316 102.5,-316 105.5,-319 105.5,-322 105.5,-322 105.5,-328 105.5,-328 105.5,-331 102.5,-334 99.5,-334"/>
<text text-anchor="middle" x="73" y="-322.8" font-family="Helvetica,sans-Serif" font-size="9.00">Chart.min.js</text>
</a>
</g>
</g>
<!-- moment -->
<g id="node6" class="node">
<title>moment</title>
<path fill="#ffffcc" stroke="red" d="M190.5,-334C190.5,-334 148.5,-334 148.5,-334 145.5,-334 142.5,-331 142.5,-328 142.5,-328 142.5,-322 142.5,-322 142.5,-319 145.5,-316 148.5,-316 148.5,-316 190.5,-316 190.5,-316 193.5,-316 196.5,-319 196.5,-322 196.5,-322 196.5,-328 196.5,-328 196.5,-331 193.5,-334 190.5,-334"/>
<text text-anchor="middle" x="169.5" y="-322.8" font-family="Helvetica,sans-Serif" font-size="9.00" fill="red">moment</text>
</g>
<!-- external/Chart.min.js&#45;&gt;moment -->
<g id="edge1" class="edge">
<title>external/Chart.min.js&#45;&gt;moment</title>
<path fill="none" stroke="#000000" stroke-width="2" stroke-opacity="0.200000" d="M105.73,-325C115.59,-325 126.46,-325 136.35,-325"/>
<polygon fill="#000000" fill-opacity="0.200000" stroke="#000000" stroke-width="2" stroke-opacity="0.200000" points="136.36,-327.1 142.36,-325 136.36,-322.9 136.36,-327.1"/>
</g>
<!-- external/apex.js -->
<g id="node7" class="node">
<title>external/apex.js</title>
<g id="a_node7"><a xlink:href="external/apex.js" xlink:title="apex.js">
<path fill="#ccffcc" stroke="black" d="M94,-304C94,-304 52,-304 52,-304 49,-304 46,-301 46,-298 46,-298 46,-292 46,-292 46,-289 49,-286 52,-286 52,-286 94,-286 94,-286 97,-286 100,-289 100,-292 100,-292 100,-298 100,-298 100,-301 97,-304 94,-304"/>
<text text-anchor="middle" x="73" y="-292.8" font-family="Helvetica,sans-Serif" font-size="9.00">apex.js</text>
</a>
</g>
</g>
<!-- external/arrive.js -->
<g id="node8" class="node">
<title>external/arrive.js</title>
<g id="a_node8"><a xlink:href="external/arrive.js" xlink:title="arrive.js">
<path fill="#ccffcc" stroke="black" d="M94,-274C94,-274 52,-274 52,-274 49,-274 46,-271 46,-268 46,-268 46,-262 46,-262 46,-259 49,-256 52,-256 52,-256 94,-256 94,-256 97,-256 100,-259 100,-262 100,-262 100,-268 100,-268 100,-271 97,-274 94,-274"/>
<text text-anchor="middle" x="73" y="-262.8" font-family="Helvetica,sans-Serif" font-size="9.00">arrive.js</text>
</a>
</g>
</g>
<!-- external/countUp.js -->
<g id="node9" class="node">
<title>external/countUp.js</title>
<g id="a_node9"><a xlink:href="external/countUp.js" xlink:title="countUp.js">
<path fill="#ccffcc" stroke="black" d="M97,-244C97,-244 49,-244 49,-244 46,-244 43,-241 43,-238 43,-238 43,-232 43,-232 43,-229 46,-226 49,-226 49,-226 97,-226 97,-226 100,-226 103,-229 103,-232 103,-232 103,-238 103,-238 103,-241 100,-244 97,-244"/>
<text text-anchor="middle" x="73" y="-232.8" font-family="Helvetica,sans-Serif" font-size="9.00">countUp.js</text>
</a>
</g>
</g>
<!-- external/fonts.js -->
<g id="node10" class="node">
<title>external/fonts.js</title>
<g id="a_node10"><a xlink:href="external/fonts.js" xlink:title="fonts.js">
<path fill="#ccffcc" stroke="black" d="M94,-214C94,-214 52,-214 52,-214 49,-214 46,-211 46,-208 46,-208 46,-202 46,-202 46,-199 49,-196 52,-196 52,-196 94,-196 94,-196 97,-196 100,-199 100,-202 100,-202 100,-208 100,-208 100,-211 97,-214 94,-214"/>
<text text-anchor="middle" x="73" y="-202.8" font-family="Helvetica,sans-Serif" font-size="9.00">fonts.js</text>
</a>
</g>
</g>
<!-- external/highCharts.js -->
<g id="node11" class="node">
<title>external/highCharts.js</title>
<g id="a_node11"><a xlink:href="external/highCharts.js" xlink:title="highCharts.js">
<path fill="#ccffcc" stroke="black" d="M102.5,-184C102.5,-184 43.5,-184 43.5,-184 40.5,-184 37.5,-181 37.5,-178 37.5,-178 37.5,-172 37.5,-172 37.5,-169 40.5,-166 43.5,-166 43.5,-166 102.5,-166 102.5,-166 105.5,-166 108.5,-169 108.5,-172 108.5,-172 108.5,-178 108.5,-178 108.5,-181 105.5,-184 102.5,-184"/>
<text text-anchor="middle" x="73" y="-172.8" font-family="Helvetica,sans-Serif" font-size="9.00">highCharts.js</text>
</a>
</g>
</g>
<!-- external/index.min.js -->
<g id="node12" class="node">
<title>external/index.min.js</title>
<g id="a_node12"><a xlink:href="external/index.min.js" xlink:title="index.min.js">
<path fill="#ccffcc" stroke="black" d="M99.5,-154C99.5,-154 46.5,-154 46.5,-154 43.5,-154 40.5,-151 40.5,-148 40.5,-148 40.5,-142 40.5,-142 40.5,-139 43.5,-136 46.5,-136 46.5,-136 99.5,-136 99.5,-136 102.5,-136 105.5,-139 105.5,-142 105.5,-142 105.5,-148 105.5,-148 105.5,-151 102.5,-154 99.5,-154"/>
<text text-anchor="middle" x="73" y="-142.8" font-family="Helvetica,sans-Serif" font-size="9.00">index.min.js</text>
</a>
</g>
</g>
<!-- external/jquery.js -->
<g id="node13" class="node">
<title>external/jquery.js</title>
<g id="a_node13"><a xlink:href="external/jquery.js" xlink:title="jquery.js">
<path fill="#ccffcc" stroke="black" d="M94,-124C94,-124 52,-124 52,-124 49,-124 46,-121 46,-118 46,-118 46,-112 46,-112 46,-109 49,-106 52,-106 52,-106 94,-106 94,-106 97,-106 100,-109 100,-112 100,-112 100,-118 100,-118 100,-121 97,-124 94,-124"/>
<text text-anchor="middle" x="73" y="-112.8" font-family="Helvetica,sans-Serif" font-size="9.00">jquery.js</text>
</a>
</g>
</g>
<!-- external/moment.js -->
<g id="node14" class="node">
<title>external/moment.js</title>
<g id="a_node14"><a xlink:href="external/moment.js" xlink:title="moment.js">
<path fill="#ccffcc" stroke="black" d="M96.5,-94C96.5,-94 49.5,-94 49.5,-94 46.5,-94 43.5,-91 43.5,-88 43.5,-88 43.5,-82 43.5,-82 43.5,-79 46.5,-76 49.5,-76 49.5,-76 96.5,-76 96.5,-76 99.5,-76 102.5,-79 102.5,-82 102.5,-82 102.5,-88 102.5,-88 102.5,-91 99.5,-94 96.5,-94"/>
<text text-anchor="middle" x="73" y="-82.8" font-family="Helvetica,sans-Serif" font-size="9.00">moment.js</text>
</a>
</g>
</g>
<!-- external/tippy&#45;core.js -->
<g id="node15" class="node">
<title>external/tippy&#45;core.js</title>
<g id="a_node15"><a xlink:href="external/tippy-core.js" xlink:title="tippy&#45;core.js">
<path fill="#ccffcc" stroke="black" d="M100,-64C100,-64 46,-64 46,-64 43,-64 40,-61 40,-58 40,-58 40,-52 40,-52 40,-49 43,-46 46,-46 46,-46 100,-46 100,-46 103,-46 106,-49 106,-52 106,-52 106,-58 106,-58 106,-61 103,-64 100,-64"/>
<text text-anchor="middle" x="73" y="-52.8" font-family="Helvetica,sans-Serif" font-size="9.00">tippy&#45;core.js</text>
</a>
</g>
</g>
<!-- external/tippy.js -->
<g id="node16" class="node">
<title>external/tippy.js</title>
<g id="a_node16"><a xlink:href="external/tippy.js" xlink:title="tippy.js">
<path fill="#ffffcc" stroke="black" d="M94,-34C94,-34 52,-34 52,-34 49,-34 46,-31 46,-28 46,-28 46,-22 46,-22 46,-19 49,-16 52,-16 52,-16 94,-16 94,-16 97,-16 100,-19 100,-22 100,-22 100,-28 100,-28 100,-31 97,-34 94,-34"/>
<text text-anchor="middle" x="73" y="-22.8" font-family="Helvetica,sans-Serif" font-size="9.00">tippy.js</text>
</a>
</g>
</g>
<!-- external/tippy.js&#45;&gt;@popperjs/core -->
<g id="edge2" class="edge">
<title>external/tippy.js&#45;&gt;@popperjs/core</title>
<path fill="none" stroke="#000000" stroke-width="2" stroke-opacity="0.200000" d="M100.07,-25C111.24,-25 124.39,-25 136.17,-25"/>
<polygon fill="#000000" fill-opacity="0.200000" stroke="#000000" stroke-width="2" stroke-opacity="0.200000" points="136.18,-27.1 142.18,-25 136.18,-22.9 136.18,-27.1"/>
</g>
<!-- src/Config.js -->
<g id="node17" class="node">
<title>src/Config.js</title>
<g id="a_node17"><a xlink:href="src/Config.js" xlink:title="Config.js">
<path fill="#ffffcc" stroke="black" d="M288,-807C288,-807 246,-807 246,-807 243,-807 240,-804 240,-801 240,-801 240,-795 240,-795 240,-792 243,-789 246,-789 246,-789 288,-789 288,-789 291,-789 294,-792 294,-795 294,-795 294,-801 294,-801 294,-804 291,-807 288,-807"/>
<text text-anchor="middle" x="267" y="-795.8" font-family="Helvetica,sans-Serif" font-size="9.00">Config.js</text>
</a>
</g>
</g>
<!-- src/backend/js/injected.js -->
<g id="node18" class="node">
<title>src/backend/js/injected.js</title>
<g id="a_node18"><a xlink:href="src/backend/js/injected.js" xlink:title="injected.js">
<path fill="#ccffcc" stroke="black" d="M192.5,-860C192.5,-860 146.5,-860 146.5,-860 143.5,-860 140.5,-857 140.5,-854 140.5,-854 140.5,-848 140.5,-848 140.5,-845 143.5,-842 146.5,-842 146.5,-842 192.5,-842 192.5,-842 195.5,-842 198.5,-845 198.5,-848 198.5,-848 198.5,-854 198.5,-854 198.5,-857 195.5,-860 192.5,-860"/>
<text text-anchor="middle" x="169.5" y="-848.8" font-family="Helvetica,sans-Serif" font-size="9.00">injected.js</text>
</a>
</g>
</g>
<!-- src/backend/js/injector.js -->
<g id="node19" class="node">
<title>src/backend/js/injector.js</title>
<g id="a_node19"><a xlink:href="src/backend/js/injector.js" xlink:title="injector.js">
<path fill="#ffffcc" stroke="black" d="M191.5,-830C191.5,-830 147.5,-830 147.5,-830 144.5,-830 141.5,-827 141.5,-824 141.5,-824 141.5,-818 141.5,-818 141.5,-815 144.5,-812 147.5,-812 147.5,-812 191.5,-812 191.5,-812 194.5,-812 197.5,-815 197.5,-818 197.5,-818 197.5,-824 197.5,-824 197.5,-827 194.5,-830 191.5,-830"/>
<text text-anchor="middle" x="169.5" y="-818.8" font-family="Helvetica,sans-Serif" font-size="9.00">injector.js</text>
</a>
</g>
</g>
<!-- src/backend/js/injector.js&#45;&gt;src/Config.js -->
<g id="edge3" class="edge">
<title>src/backend/js/injector.js&#45;&gt;src/Config.js</title>
<path fill="none" stroke="#000000" stroke-width="2" stroke-opacity="0.200000" d="M197.61,-814.47C208.88,-811.76 222.05,-808.58 233.81,-805.75"/>
<polygon fill="#000000" fill-opacity="0.200000" stroke="#000000" stroke-width="2" stroke-opacity="0.200000" points="234.47,-807.75 239.81,-804.31 233.48,-803.67 234.47,-807.75"/>
</g>
<!-- src/backend/js/main.js -->
<g id="node20" class="node">
<title>src/backend/js/main.js</title>
<g id="a_node20"><a xlink:href="src/backend/js/main.js" xlink:title="main.js">
<path fill="#ccffcc" stroke="black" d="M190.5,-800C190.5,-800 148.5,-800 148.5,-800 145.5,-800 142.5,-797 142.5,-794 142.5,-794 142.5,-788 142.5,-788 142.5,-785 145.5,-782 148.5,-782 148.5,-782 190.5,-782 190.5,-782 193.5,-782 196.5,-785 196.5,-788 196.5,-788 196.5,-794 196.5,-794 196.5,-797 193.5,-800 190.5,-800"/>
<text text-anchor="middle" x="169.5" y="-788.8" font-family="Helvetica,sans-Serif" font-size="9.00">main.js</text>
</a>
</g>
</g>
<!-- src/popup/js/AnalysisPage.js -->
<g id="node21" class="node">
<title>src/popup/js/AnalysisPage.js</title>
<g id="a_node21"><a xlink:href="src/popup/js/AnalysisPage.js" xlink:title="AnalysisPage.js">
<path fill="#ffffcc" stroke="black" d="M108,-616C108,-616 38,-616 38,-616 35,-616 32,-613 32,-610 32,-610 32,-604 32,-604 32,-601 35,-598 38,-598 38,-598 108,-598 108,-598 111,-598 114,-601 114,-604 114,-604 114,-610 114,-610 114,-613 111,-616 108,-616"/>
<text text-anchor="middle" x="73" y="-604.8" font-family="Helvetica,sans-Serif" font-size="9.00">AnalysisPage.js</text>
</a>
</g>
</g>
<!-- src/popup/js/internal.js -->
<g id="node22" class="node">
<title>src/popup/js/internal.js</title>
<g id="a_node22"><a xlink:href="src/popup/js/internal.js" xlink:title="internal.js">
<path fill="#ffffcc" stroke="black" d="M191.5,-616C191.5,-616 147.5,-616 147.5,-616 144.5,-616 141.5,-613 141.5,-610 141.5,-610 141.5,-604 141.5,-604 141.5,-601 144.5,-598 147.5,-598 147.5,-598 191.5,-598 191.5,-598 194.5,-598 197.5,-601 197.5,-604 197.5,-604 197.5,-610 197.5,-610 197.5,-613 194.5,-616 191.5,-616"/>
<text text-anchor="middle" x="169.5" y="-604.8" font-family="Helvetica,sans-Serif" font-size="9.00">internal.js</text>
</a>
</g>
</g>
<!-- src/popup/js/AnalysisPage.js&#45;&gt;src/popup/js/internal.js -->
<g id="edge4" class="edge">
<title>src/popup/js/AnalysisPage.js&#45;&gt;src/popup/js/internal.js</title>
<path fill="none" stroke="#000000" stroke-width="2" stroke-opacity="0.200000" d="M114.08,-602.55C118.37,-602.49 122.74,-602.49 127.05,-602.53"/>
<polygon fill="#000000" fill-opacity="0.200000" stroke="#000000" stroke-width="2" stroke-opacity="0.200000" points="135.18,-604.83 141.23,-602.88 135.28,-600.63 135.18,-604.83"/>
<polyline fill="none" stroke="#000000" stroke-width="2" stroke-opacity="0.200000" points="135.23,-602.73 132.23,-602.66 "/>
<ellipse fill="none" stroke="#000000" stroke-width="2" stroke-opacity="0.200000" cx="129.83" cy="-602.6" rx="2.4" ry="2.4"/>
</g>
<!-- src/popup/js/internal.js&#45;&gt;src/Config.js -->
<g id="edge10" class="edge">
<title>src/popup/js/internal.js&#45;&gt;src/Config.js</title>
<path fill="none" stroke="#000000" stroke-width="2" stroke-opacity="0.200000" d="M173.5,-616.31C180.6,-637.86 199.59,-692.58 222.5,-735 232,-752.6 245.37,-771.28 254.77,-783.69"/>
<polygon fill="#000000" fill-opacity="0.200000" stroke="#000000" stroke-width="2" stroke-opacity="0.200000" points="253.22,-785.11 258.53,-788.6 256.55,-782.56 253.22,-785.11"/>
</g>
<!-- src/popup/js/internal.js&#45;&gt;src/popup/js/AnalysisPage.js -->
<g id="edge11" class="edge">
<title>src/popup/js/internal.js&#45;&gt;src/popup/js/AnalysisPage.js</title>
<path fill="none" stroke="#000000" stroke-width="2" stroke-opacity="0.200000" d="M141.23,-611.12C136.99,-611.29 132.49,-611.4 127.91,-611.46"/>
<polygon fill="#000000" fill-opacity="0.200000" stroke="#000000" stroke-width="2" stroke-opacity="0.200000" points="120.08,-609.36 114.08,-611.45 120.08,-613.56 120.08,-609.36"/>
<polyline fill="none" stroke="#000000" stroke-width="2" stroke-opacity="0.200000" points="120.08,-611.46 123.08,-611.46 "/>
<ellipse fill="none" stroke="#000000" stroke-width="2" stroke-opacity="0.200000" cx="125.48" cy="-611.46" rx="2.4" ry="2.4"/>
</g>
<!-- src/popup/js/CurrentMeeting.js -->
<g id="node23" class="node">
<title>src/popup/js/CurrentMeeting.js</title>
<g id="a_node23"><a xlink:href="src/popup/js/CurrentMeeting.js" xlink:title="CurrentMeeting.js">
<path fill="#ffffcc" stroke="black" d="M305.5,-526C305.5,-526 228.5,-526 228.5,-526 225.5,-526 222.5,-523 222.5,-520 222.5,-520 222.5,-514 222.5,-514 222.5,-511 225.5,-508 228.5,-508 228.5,-508 305.5,-508 305.5,-508 308.5,-508 311.5,-511 311.5,-514 311.5,-514 311.5,-520 311.5,-520 311.5,-523 308.5,-526 305.5,-526"/>
<text text-anchor="middle" x="267" y="-514.8" font-family="Helvetica,sans-Serif" font-size="9.00">CurrentMeeting.js</text>
</a>
</g>
</g>
<!-- src/popup/js/internal.js&#45;&gt;src/popup/js/CurrentMeeting.js -->
<g id="edge12" class="edge">
<title>src/popup/js/internal.js&#45;&gt;src/popup/js/CurrentMeeting.js</title>
<path fill="none" stroke="#000000" stroke-width="2" stroke-opacity="0.200000" d="M173.06,-597.92C178.43,-583.37 192.02,-555.43 211.71,-535.52"/>
<polygon fill="#000000" fill-opacity="0.200000" stroke="#000000" stroke-width="2" stroke-opacity="0.200000" points="219.1,-531.78 222.2,-526.23 216.32,-528.64 219.1,-531.78"/>
<polyline fill="none" stroke="#000000" stroke-width="2" stroke-opacity="0.200000" points="217.71,-530.21 215.47,-532.2 "/>
<ellipse fill="none" stroke="#000000" stroke-width="2" stroke-opacity="0.200000" cx="213.67" cy="-533.79" rx="2.4" ry="2.4"/>
</g>
<!-- src/popup/js/Logger.js -->
<g id="node24" class="node">
<title>src/popup/js/Logger.js</title>
<g id="a_node24"><a xlink:href="src/popup/js/Logger.js" xlink:title="Logger.js">
<path fill="#ffffcc" stroke="black" d="M288.5,-556C288.5,-556 245.5,-556 245.5,-556 242.5,-556 239.5,-553 239.5,-550 239.5,-550 239.5,-544 239.5,-544 239.5,-541 242.5,-538 245.5,-538 245.5,-538 288.5,-538 288.5,-538 291.5,-538 294.5,-541 294.5,-544 294.5,-544 294.5,-550 294.5,-550 294.5,-553 291.5,-556 288.5,-556"/>
<text text-anchor="middle" x="267" y="-544.8" font-family="Helvetica,sans-Serif" font-size="9.00">Logger.js</text>
</a>
</g>
</g>
<!-- src/popup/js/internal.js&#45;&gt;src/popup/js/Logger.js -->
<g id="edge13" class="edge">
<title>src/popup/js/internal.js&#45;&gt;src/popup/js/Logger.js</title>
<path fill="none" stroke="#000000" stroke-width="2" stroke-opacity="0.200000" d="M178.89,-597.89C188.56,-587.88 205.33,-571.89 222.5,-562 225.86,-560.06 229.51,-558.32 233.22,-556.77"/>
<polygon fill="#000000" fill-opacity="0.200000" stroke="#000000" stroke-width="2" stroke-opacity="0.200000" points="234.24,-558.63 239.07,-554.49 232.72,-554.71 234.24,-558.63"/>
</g>
<!-- src/popup/js/Main.js -->
<g id="node25" class="node">
<title>src/popup/js/Main.js</title>
<g id="a_node25"><a xlink:href="src/popup/js/Main.js" xlink:title="Main.js">
<path fill="#ffffcc" stroke="black" d="M288,-586C288,-586 246,-586 246,-586 243,-586 240,-583 240,-580 240,-580 240,-574 240,-574 240,-571 243,-568 246,-568 246,-568 288,-568 288,-568 291,-568 294,-571 294,-574 294,-574 294,-580 294,-580 294,-583 291,-586 288,-586"/>
<text text-anchor="middle" x="267" y="-574.8" font-family="Helvetica,sans-Serif" font-size="9.00">Main.js</text>
</a>
</g>
</g>
<!-- src/popup/js/internal.js&#45;&gt;src/popup/js/Main.js -->
<g id="edge14" class="edge">
<title>src/popup/js/internal.js&#45;&gt;src/popup/js/Main.js</title>
<path fill="none" stroke="#000000" stroke-width="2" stroke-opacity="0.200000" d="M188.02,-597.92C198.81,-593.76 213.1,-588.98 226.49,-584.97"/>
<polygon fill="#000000" fill-opacity="0.200000" stroke="#000000" stroke-width="2" stroke-opacity="0.200000" points="234.76,-584.79 239.95,-581.13 233.6,-580.76 234.76,-584.79"/>
<polyline fill="none" stroke="#000000" stroke-width="2" stroke-opacity="0.200000" points="234.18,-582.77 231.29,-583.6 "/>
<ellipse fill="none" stroke="#000000" stroke-width="2" stroke-opacity="0.200000" cx="228.99" cy="-584.26" rx="2.4" ry="2.4"/>
</g>
<!-- src/popup/js/MeetStorage.js -->
<g id="node26" class="node">
<title>src/popup/js/MeetStorage.js</title>
<g id="a_node26"><a xlink:href="src/popup/js/MeetStorage.js" xlink:title="MeetStorage.js">
<path fill="#ffffcc" stroke="black" d="M300,-646C300,-646 234,-646 234,-646 231,-646 228,-643 228,-640 228,-640 228,-634 228,-634 228,-631 231,-628 234,-628 234,-628 300,-628 300,-628 303,-628 306,-631 306,-634 306,-634 306,-640 306,-640 306,-643 303,-646 300,-646"/>
<text text-anchor="middle" x="267" y="-634.8" font-family="Helvetica,sans-Serif" font-size="9.00">MeetStorage.js</text>
</a>
</g>
</g>
<!-- src/popup/js/internal.js&#45;&gt;src/popup/js/MeetStorage.js -->
<g id="edge16" class="edge">
<title>src/popup/js/internal.js&#45;&gt;src/popup/js/MeetStorage.js</title>
<path fill="none" stroke="#000000" stroke-width="2" stroke-opacity="0.200000" d="M197.61,-611.41C209.34,-614.62 223.13,-618.91 235.25,-623.1"/>
<polygon fill="#000000" fill-opacity="0.200000" stroke="#000000" stroke-width="2" stroke-opacity="0.200000" points="242.11,-627.84 248.47,-627.92 243.55,-623.89 242.11,-627.84"/>
<polyline fill="none" stroke="#000000" stroke-width="2" stroke-opacity="0.200000" points="242.83,-625.86 240.01,-624.84 "/>
<ellipse fill="none" stroke="#000000" stroke-width="2" stroke-opacity="0.200000" cx="237.76" cy="-624.02" rx="2.4" ry="2.4"/>
</g>
<!-- src/popup/js/MeetingHistory.js -->
<g id="node27" class="node">
<title>src/popup/js/MeetingHistory.js</title>
<g id="a_node27"><a xlink:href="src/popup/js/MeetingHistory.js" xlink:title="MeetingHistory.js">
<path fill="#ffffcc" stroke="black" d="M304.5,-616C304.5,-616 229.5,-616 229.5,-616 226.5,-616 223.5,-613 223.5,-610 223.5,-610 223.5,-604 223.5,-604 223.5,-601 226.5,-598 229.5,-598 229.5,-598 304.5,-598 304.5,-598 307.5,-598 310.5,-601 310.5,-604 310.5,-604 310.5,-610 310.5,-610 310.5,-613 307.5,-616 304.5,-616"/>
<text text-anchor="middle" x="267" y="-604.8" font-family="Helvetica,sans-Serif" font-size="9.00">MeetingHistory.js</text>
</a>
</g>
</g>
<!-- src/popup/js/internal.js&#45;&gt;src/popup/js/MeetingHistory.js -->
<g id="edge15" class="edge">
<title>src/popup/js/internal.js&#45;&gt;src/popup/js/MeetingHistory.js</title>
<path fill="none" stroke="#000000" stroke-width="2" stroke-opacity="0.200000" d="M197.61,-602.9C201.38,-602.74 205.37,-602.63 209.45,-602.57"/>
<polygon fill="#000000" fill-opacity="0.200000" stroke="#000000" stroke-width="2" stroke-opacity="0.200000" points="217.47,-604.64 223.46,-602.52 217.46,-600.44 217.47,-604.64"/>
<polyline fill="none" stroke="#000000" stroke-width="2" stroke-opacity="0.200000" points="217.46,-602.54 214.46,-602.55 "/>
<ellipse fill="none" stroke="#000000" stroke-width="2" stroke-opacity="0.200000" cx="212.06" cy="-602.56" rx="2.4" ry="2.4"/>
</g>
<!-- src/popup/js/SpeakingUtil.js -->
<g id="node28" class="node">
<title>src/popup/js/SpeakingUtil.js</title>
<g id="a_node28"><a xlink:href="src/popup/js/SpeakingUtil.js" xlink:title="SpeakingUtil.js">
<path fill="#ffffcc" stroke="black" d="M300,-676C300,-676 234,-676 234,-676 231,-676 228,-673 228,-670 228,-670 228,-664 228,-664 228,-661 231,-658 234,-658 234,-658 300,-658 300,-658 303,-658 306,-661 306,-664 306,-664 306,-670 306,-670 306,-673 303,-676 300,-676"/>
<text text-anchor="middle" x="267" y="-664.8" font-family="Helvetica,sans-Serif" font-size="9.00">SpeakingUtil.js</text>
</a>
</g>
</g>
<!-- src/popup/js/internal.js&#45;&gt;src/popup/js/SpeakingUtil.js -->
<g id="edge17" class="edge">
<title>src/popup/js/internal.js&#45;&gt;src/popup/js/SpeakingUtil.js</title>
<path fill="none" stroke="#000000" stroke-width="2" stroke-opacity="0.200000" d="M183.93,-616.19C193.82,-624.98 208.02,-637.66 222.5,-646 227.13,-648.67 232.32,-650.97 237.45,-653.02"/>
<polygon fill="#000000" fill-opacity="0.200000" stroke="#000000" stroke-width="2" stroke-opacity="0.200000" points="244.13,-657.78 250.49,-657.93 245.61,-653.85 244.13,-657.78"/>
<polyline fill="none" stroke="#000000" stroke-width="2" stroke-opacity="0.200000" points="244.87,-655.81 242.07,-654.75 "/>
<ellipse fill="none" stroke="#000000" stroke-width="2" stroke-opacity="0.200000" cx="239.82" cy="-653.91" rx="2.4" ry="2.4"/>
</g>
<!-- src/popup/js/Util.js -->
<g id="node29" class="node">
<title>src/popup/js/Util.js</title>
<g id="a_node29"><a xlink:href="src/popup/js/Util.js" xlink:title="Util.js">
<path fill="#ffffcc" stroke="black" d="M288,-706C288,-706 246,-706 246,-706 243,-706 240,-703 240,-700 240,-700 240,-694 240,-694 240,-691 243,-688 246,-688 246,-688 288,-688 288,-688 291,-688 294,-691 294,-694 294,-694 294,-700 294,-700 294,-703 291,-706 288,-706"/>
<text text-anchor="middle" x="267" y="-694.8" font-family="Helvetica,sans-Serif" font-size="9.00">Util.js</text>
</a>
</g>
</g>
<!-- src/popup/js/internal.js&#45;&gt;src/popup/js/Util.js -->
<g id="edge18" class="edge">
<title>src/popup/js/internal.js&#45;&gt;src/popup/js/Util.js</title>
<path fill="none" stroke="#000000" stroke-width="2" stroke-opacity="0.200000" d="M174.53,-616.26C181.84,-632 198.76,-664.01 222.5,-682 226,-684.65 230.01,-686.86 234.14,-688.69"/>
<polygon fill="#000000" fill-opacity="0.200000" stroke="#000000" stroke-width="2" stroke-opacity="0.200000" points="233.46,-690.68 239.81,-690.95 235.02,-686.78 233.46,-690.68"/>
</g>
<!-- src/popup/js/CurrentMeeting.js&#45;&gt;src/popup/js/internal.js -->
<g id="edge5" class="edge">
<title>src/popup/js/CurrentMeeting.js&#45;&gt;src/popup/js/internal.js</title>
<path fill="none" stroke="#000000" stroke-width="2" stroke-opacity="0.200000" d="M247.4,-526.12C239.18,-528.92 229.76,-532.5 222.5,-538 205.77,-550.67 192.43,-570.31 183.46,-585.48"/>
<polygon fill="#000000" fill-opacity="0.200000" stroke="#000000" stroke-width="2" stroke-opacity="0.200000" points="177.59,-591.57 176.46,-597.83 181.25,-593.64 177.59,-591.57"/>
<polyline fill="none" stroke="#000000" stroke-width="2" stroke-opacity="0.200000" points="179.42,-592.61 180.9,-590 "/>
<ellipse fill="none" stroke="#000000" stroke-width="2" stroke-opacity="0.200000" cx="182.08" cy="-587.91" rx="2.4" ry="2.4"/>
</g>
<!-- src/popup/js/Main.js&#45;&gt;src/popup/js/internal.js -->
<g id="edge6" class="edge">
<title>src/popup/js/Main.js&#45;&gt;src/popup/js/internal.js</title>
<path fill="none" stroke="#000000" stroke-width="2" stroke-opacity="0.200000" d="M248.47,-586.08C238.02,-590.11 224.29,-594.72 211.27,-598.65"/>
<polygon fill="#000000" fill-opacity="0.200000" stroke="#000000" stroke-width="2" stroke-opacity="0.200000" points="202.79,-598.91 197.61,-602.59 203.96,-602.94 202.79,-598.91"/>
<polyline fill="none" stroke="#000000" stroke-width="2" stroke-opacity="0.200000" points="203.38,-600.92 206.26,-600.09 "/>
<ellipse fill="none" stroke="#000000" stroke-width="2" stroke-opacity="0.200000" cx="208.57" cy="-599.43" rx="2.4" ry="2.4"/>
</g>
<!-- src/popup/js/MeetStorage.js&#45;&gt;src/popup/js/internal.js -->
<g id="edge7" class="edge">
<title>src/popup/js/MeetStorage.js&#45;&gt;src/popup/js/internal.js</title>
<path fill="none" stroke="#000000" stroke-width="2" stroke-opacity="0.200000" d="M227.62,-629.36C218.83,-626.75 209.6,-623.79 201.19,-620.87"/>
<polygon fill="#000000" fill-opacity="0.200000" stroke="#000000" stroke-width="2" stroke-opacity="0.200000" points="194.37,-616.16 188.02,-616.08 192.94,-620.1 194.37,-616.16"/>
<polyline fill="none" stroke="#000000" stroke-width="2" stroke-opacity="0.200000" points="193.65,-618.13 196.47,-619.16 "/>
<ellipse fill="none" stroke="#000000" stroke-width="2" stroke-opacity="0.200000" cx="198.73" cy="-619.98" rx="2.4" ry="2.4"/>
</g>
<!-- src/popup/js/MeetingHistory.js&#45;&gt;src/popup/js/internal.js -->
<g id="edge8" class="edge">
<title>src/popup/js/MeetingHistory.js&#45;&gt;src/popup/js/internal.js</title>
<path fill="none" stroke="#000000" stroke-width="2" stroke-opacity="0.200000" d="M223.46,-611.48C219.49,-611.51 215.46,-611.51 211.49,-611.46"/>
<polygon fill="#000000" fill-opacity="0.200000" stroke="#000000" stroke-width="2" stroke-opacity="0.200000" points="203.66,-609.16 197.61,-611.1 203.56,-613.36 203.66,-609.16"/>
<polyline fill="none" stroke="#000000" stroke-width="2" stroke-opacity="0.200000" points="203.61,-611.26 206.61,-611.33 "/>
<ellipse fill="none" stroke="#000000" stroke-width="2" stroke-opacity="0.200000" cx="209.01" cy="-611.4" rx="2.4" ry="2.4"/>
</g>
<!-- src/popup/js/SpeakingUtil.js&#45;&gt;src/popup/js/internal.js -->
<g id="edge9" class="edge">
<title>src/popup/js/SpeakingUtil.js&#45;&gt;src/popup/js/internal.js</title>
<path fill="none" stroke="#000000" stroke-width="2" stroke-opacity="0.200000" d="M227.67,-660.72C225.89,-659.87 224.16,-658.96 222.5,-658 208.22,-649.77 194.22,-637.33 184.35,-626.67"/>
<polygon fill="#000000" fill-opacity="0.200000" stroke="#000000" stroke-width="2" stroke-opacity="0.200000" points="180.91,-619.33 175.44,-616.09 177.7,-622.03 180.91,-619.33"/>
<polyline fill="none" stroke="#000000" stroke-width="2" stroke-opacity="0.200000" points="179.3,-620.68 181.24,-622.98 "/>
<ellipse fill="none" stroke="#000000" stroke-width="2" stroke-opacity="0.200000" cx="182.78" cy="-624.81" rx="2.4" ry="2.4"/>
</g>
<!-- src/popup/js/popup.js -->
<g id="node30" class="node">
<title>src/popup/js/popup.js</title>
<g id="a_node30"><a xlink:href="src/popup/js/popup.js" xlink:title="popup.js">
<path fill="#ffffcc" stroke="black" d="M94,-586C94,-586 52,-586 52,-586 49,-586 46,-583 46,-580 46,-580 46,-574 46,-574 46,-571 49,-568 52,-568 52,-568 94,-568 94,-568 97,-568 100,-571 100,-574 100,-574 100,-580 100,-580 100,-583 97,-586 94,-586"/>
<text text-anchor="middle" x="73" y="-574.8" font-family="Helvetica,sans-Serif" font-size="9.00">popup.js</text>
</a>
</g>
</g>
<!-- src/popup/js/popup.js&#45;&gt;src/popup/js/internal.js -->
<g id="edge19" class="edge">
<title>src/popup/js/popup.js&#45;&gt;src/popup/js/internal.js</title>
<path fill="none" stroke="#000000" stroke-width="2" stroke-opacity="0.200000" d="M100.07,-585.28C110.96,-588.73 123.74,-592.79 135.28,-596.46"/>
<polygon fill="#000000" fill-opacity="0.200000" stroke="#000000" stroke-width="2" stroke-opacity="0.200000" points="134.84,-598.52 141.19,-598.33 136.11,-594.51 134.84,-598.52"/>
</g>
</g>
</svg>
