<?xml version="1.0" encoding="UTF-8" standalone="no"?>
<!DOCTYPE svg PUBLIC "-//W3C//DTD SVG 1.1//EN"
 "http://www.w3.org/Graphics/SVG/1.1/DTD/svg11.dtd">
<!-- Generated by graphviz version 2.47.0 (20210316.0004)
 -->
<!-- Title: dependency&#45;cruiser output Pages: 1 -->
<svg width="276pt" height="350pt"
 viewBox="0.00 0.00 276.00 350.00" xmlns="http://www.w3.org/2000/svg" xmlns:xlink="http://www.w3.org/1999/xlink">
<g id="graph0" class="graph" transform="scale(1 1) rotate(0) translate(4 346)">
<title>dependency&#45;cruiser output</title>
<polygon fill="white" stroke="transparent" points="-4,4 -4,-346 272,-346 272,4 -4,4"/>
<g id="clust1" class="cluster">
<title>cluster_popup</title>
<path fill="#ffffff" stroke="black" stroke-width="2" d="M20,-8C20,-8 248,-8 248,-8 254,-8 260,-14 260,-20 260,-20 260,-322 260,-322 260,-328 254,-334 248,-334 248,-334 20,-334 20,-334 14,-334 8,-328 8,-322 8,-322 8,-20 8,-20 8,-14 14,-8 20,-8"/>
<text text-anchor="middle" x="134" y="-322.8" font-family="Helvetica,sans-Serif" font-weight="bold" font-size="9.00">popup</text>
</g>
<g id="clust2" class="cluster">
<title>cluster_popup/scripts</title>
<path fill="#ffffff" stroke="black" stroke-width="2" d="M90,-16C90,-16 240,-16 240,-16 246,-16 252,-22 252,-28 252,-28 252,-296 252,-296 252,-302 246,-308 240,-308 240,-308 90,-308 90,-308 84,-308 78,-302 78,-296 78,-296 78,-28 78,-28 78,-22 84,-16 90,-16"/>
<text text-anchor="middle" x="165" y="-296.8" font-family="Helvetica,sans-Serif" font-weight="bold" font-size="9.00">scripts</text>
</g>
<!-- popup/popup.js -->
<g id="node1" class="node">
<title>popup/popup.js</title>
<g id="a_node1"><a xlink:href="popup/popup.js" xlink:title="popup.js">
<path fill="#ffffcc" stroke="black" d="M64,-162C64,-162 22,-162 22,-162 19,-162 16,-159 16,-156 16,-156 16,-150 16,-150 16,-147 19,-144 22,-144 22,-144 64,-144 64,-144 67,-144 70,-147 70,-150 70,-150 70,-156 70,-156 70,-159 67,-162 64,-162"/>
<text text-anchor="middle" x="43" y="-150.8" font-family="Helvetica,sans-Serif" font-size="9.00">popup.js</text>
</a>
</g>
</g>
<!-- popup/scripts/internal.js -->
<g id="node2" class="node">
<title>popup/scripts/internal.js</title>
<g id="a_node2"><a xlink:href="popup/scripts/internal.js" xlink:title="internal.js">
<path fill="#ffffcc" stroke="black" d="M136,-162C136,-162 92,-162 92,-162 89,-162 86,-159 86,-156 86,-156 86,-150 86,-150 86,-147 89,-144 92,-144 92,-144 136,-144 136,-144 139,-144 142,-147 142,-150 142,-150 142,-156 142,-156 142,-159 139,-162 136,-162"/>
<text text-anchor="middle" x="114" y="-150.8" font-family="Helvetica,sans-Serif" font-size="9.00">internal.js</text>
</a>
</g>
</g>
<!-- popup/popup.js&#45;&gt;popup/scripts/internal.js -->
<g id="edge1" class="edge">
<title>popup/popup.js&#45;&gt;popup/scripts/internal.js</title>
<path fill="none" stroke="#000000" stroke-width="2" stroke-opacity="0.200000" d="M70.09,-153C73.17,-153 76.34,-153 79.51,-153"/>
<polygon fill="#000000" fill-opacity="0.200000" stroke="#000000" stroke-width="2" stroke-opacity="0.200000" points="79.96,-155.1 85.96,-153 79.96,-150.9 79.96,-155.1"/>
</g>
<!-- popup/scripts/AnalysisPage.js -->
<g id="node3" class="node">
<title>popup/scripts/AnalysisPage.js</title>
<g id="a_node3"><a xlink:href="popup/scripts/AnalysisPage.js" xlink:title="AnalysisPage.js">
<path fill="#ffffcc" stroke="black" d="M234.5,-42C234.5,-42 164.5,-42 164.5,-42 161.5,-42 158.5,-39 158.5,-36 158.5,-36 158.5,-30 158.5,-30 158.5,-27 161.5,-24 164.5,-24 164.5,-24 234.5,-24 234.5,-24 237.5,-24 240.5,-27 240.5,-30 240.5,-30 240.5,-36 240.5,-36 240.5,-39 237.5,-42 234.5,-42"/>
<text text-anchor="middle" x="199.5" y="-30.8" font-family="Helvetica,sans-Serif" font-size="9.00">AnalysisPage.js</text>
</a>
</g>
</g>
<!-- popup/scripts/internal.js&#45;&gt;popup/scripts/AnalysisPage.js -->
<g id="edge8" class="edge">
<title>popup/scripts/internal.js&#45;&gt;popup/scripts/AnalysisPage.js</title>
<path fill="none" stroke="#000000" stroke-width="2" stroke-opacity="0.200000" d="M115.59,-143.82C117.38,-124.66 124.07,-81 148.78,-49.69"/>
<polygon fill="#000000" fill-opacity="0.200000" stroke="#000000" stroke-width="2" stroke-opacity="0.200000" points="155.82,-45.05 158.29,-39.2 152.71,-42.23 155.82,-45.05"/>
<polyline fill="none" stroke="#000000" stroke-width="2" stroke-opacity="0.200000" points="154.26,-43.64 152.25,-45.86 "/>
<ellipse fill="none" stroke="#000000" stroke-width="2" stroke-opacity="0.200000" cx="150.64" cy="-47.64" rx="2.4" ry="2.4"/>
</g>
<!-- popup/scripts/Config.js -->
<g id="node4" class="node">
<title>popup/scripts/Config.js</title>
<g id="a_node4"><a xlink:href="popup/scripts/Config.js" xlink:title="Config.js">
<path fill="#ffffcc" stroke="black" d="M220.5,-72C220.5,-72 178.5,-72 178.5,-72 175.5,-72 172.5,-69 172.5,-66 172.5,-66 172.5,-60 172.5,-60 172.5,-57 175.5,-54 178.5,-54 178.5,-54 220.5,-54 220.5,-54 223.5,-54 226.5,-57 226.5,-60 226.5,-60 226.5,-66 226.5,-66 226.5,-69 223.5,-72 220.5,-72"/>
<text text-anchor="middle" x="199.5" y="-60.8" font-family="Helvetica,sans-Serif" font-size="9.00">Config.js</text>
</a>
</g>
</g>
<!-- popup/scripts/internal.js&#45;&gt;popup/scripts/Config.js -->
<g id="edge9" class="edge">
<title>popup/scripts/internal.js&#45;&gt;popup/scripts/Config.js</title>
<path fill="none" stroke="#000000" stroke-width="2" stroke-opacity="0.200000" d="M117.5,-143.75C122.22,-128.02 133.9,-96.01 155,-78 158.43,-75.08 162.45,-72.71 166.65,-70.81"/>
<polygon fill="#000000" fill-opacity="0.200000" stroke="#000000" stroke-width="2" stroke-opacity="0.200000" points="167.65,-72.66 172.44,-68.48 166.09,-68.77 167.65,-72.66"/>
</g>
<!-- popup/scripts/CurrentMeeting.js -->
<g id="node5" class="node">
<title>popup/scripts/CurrentMeeting.js</title>
<g id="a_node5"><a xlink:href="popup/scripts/CurrentMeeting.js" xlink:title="CurrentMeeting.js">
<path fill="#ffffcc" stroke="black" d="M238,-102C238,-102 161,-102 161,-102 158,-102 155,-99 155,-96 155,-96 155,-90 155,-90 155,-87 158,-84 161,-84 161,-84 238,-84 238,-84 241,-84 244,-87 244,-90 244,-90 244,-96 244,-96 244,-99 241,-102 238,-102"/>
<text text-anchor="middle" x="199.5" y="-90.8" font-family="Helvetica,sans-Serif" font-size="9.00">CurrentMeeting.js</text>
</a>
</g>
</g>
<!-- popup/scripts/internal.js&#45;&gt;popup/scripts/CurrentMeeting.js -->
<g id="edge10" class="edge">
<title>popup/scripts/internal.js&#45;&gt;popup/scripts/CurrentMeeting.js</title>
<path fill="none" stroke="#000000" stroke-width="2" stroke-opacity="0.200000" d="M118.51,-143.85C123.24,-134.89 132.41,-121.69 143.71,-111.08"/>
<polygon fill="#000000" fill-opacity="0.200000" stroke="#000000" stroke-width="2" stroke-opacity="0.200000" points="151.27,-107.66 154.62,-102.26 148.63,-104.4 151.27,-107.66"/>
<polyline fill="none" stroke="#000000" stroke-width="2" stroke-opacity="0.200000" points="149.95,-106.03 147.62,-107.91 "/>
<ellipse fill="none" stroke="#000000" stroke-width="2" stroke-opacity="0.200000" cx="145.75" cy="-109.42" rx="2.4" ry="2.4"/>
</g>
<!-- popup/scripts/Logger.js -->
<g id="node6" class="node">
<title>popup/scripts/Logger.js</title>
<g id="a_node6"><a xlink:href="popup/scripts/Logger.js" xlink:title="Logger.js">
<path fill="#ffffcc" stroke="black" d="M221,-132C221,-132 178,-132 178,-132 175,-132 172,-129 172,-126 172,-126 172,-120 172,-120 172,-117 175,-114 178,-114 178,-114 221,-114 221,-114 224,-114 227,-117 227,-120 227,-120 227,-126 227,-126 227,-129 224,-132 221,-132"/>
<text text-anchor="middle" x="199.5" y="-120.8" font-family="Helvetica,sans-Serif" font-size="9.00">Logger.js</text>
</a>
</g>
</g>
<!-- popup/scripts/internal.js&#45;&gt;popup/scripts/Logger.js -->
<g id="edge11" class="edge">
<title>popup/scripts/internal.js&#45;&gt;popup/scripts/Logger.js</title>
<path fill="none" stroke="#000000" stroke-width="2" stroke-opacity="0.200000" d="M139.07,-143.85C144.31,-141.9 149.84,-139.86 155,-138 158.55,-136.72 162.27,-135.4 165.98,-134.11"/>
<polygon fill="#000000" fill-opacity="0.200000" stroke="#000000" stroke-width="2" stroke-opacity="0.200000" points="166.8,-136.05 171.77,-132.09 165.42,-132.08 166.8,-136.05"/>
</g>
<!-- popup/scripts/Main.js -->
<g id="node7" class="node">
<title>popup/scripts/Main.js</title>
<g id="a_node7"><a xlink:href="popup/scripts/Main.js" xlink:title="Main.js">
<path fill="#ffffcc" stroke="black" d="M220.5,-162C220.5,-162 178.5,-162 178.5,-162 175.5,-162 172.5,-159 172.5,-156 172.5,-156 172.5,-150 172.5,-150 172.5,-147 175.5,-144 178.5,-144 178.5,-144 220.5,-144 220.5,-144 223.5,-144 226.5,-147 226.5,-150 226.5,-150 226.5,-156 226.5,-156 226.5,-159 223.5,-162 220.5,-162"/>
<text text-anchor="middle" x="199.5" y="-150.8" font-family="Helvetica,sans-Serif" font-size="9.00">Main.js</text>
</a>
</g>
</g>
<!-- popup/scripts/internal.js&#45;&gt;popup/scripts/Main.js -->
<g id="edge12" class="edge">
<title>popup/scripts/internal.js&#45;&gt;popup/scripts/Main.js</title>
<path fill="none" stroke="#000000" stroke-width="2" stroke-opacity="0.200000" d="M142.34,-148.75C147.45,-148.57 152.88,-148.48 158.27,-148.5"/>
<polygon fill="#000000" fill-opacity="0.200000" stroke="#000000" stroke-width="2" stroke-opacity="0.200000" points="166.19,-150.76 172.23,-148.79 166.28,-146.57 166.19,-150.76"/>
<polyline fill="none" stroke="#000000" stroke-width="2" stroke-opacity="0.200000" points="166.24,-148.66 163.24,-148.6 "/>
<ellipse fill="none" stroke="#000000" stroke-width="2" stroke-opacity="0.200000" cx="160.84" cy="-148.55" rx="2.4" ry="2.4"/>
</g>
<!-- popup/scripts/MeetStorage.js -->
<g id="node8" class="node">
<title>popup/scripts/MeetStorage.js</title>
<g id="a_node8"><a xlink:href="popup/scripts/MeetStorage.js" xlink:title="MeetStorage.js">
<path fill="#ffffcc" stroke="black" d="M232.5,-222C232.5,-222 166.5,-222 166.5,-222 163.5,-222 160.5,-219 160.5,-216 160.5,-216 160.5,-210 160.5,-210 160.5,-207 163.5,-204 166.5,-204 166.5,-204 232.5,-204 232.5,-204 235.5,-204 238.5,-207 238.5,-210 238.5,-210 238.5,-216 238.5,-216 238.5,-219 235.5,-222 232.5,-222"/>
<text text-anchor="middle" x="199.5" y="-210.8" font-family="Helvetica,sans-Serif" font-size="9.00">MeetStorage.js</text>
</a>
</g>
</g>
<!-- popup/scripts/internal.js&#45;&gt;popup/scripts/MeetStorage.js -->
<g id="edge14" class="edge">
<title>popup/scripts/internal.js&#45;&gt;popup/scripts/MeetStorage.js</title>
<path fill="none" stroke="#000000" stroke-width="2" stroke-opacity="0.200000" d="M124.7,-162.33C132,-171.18 142.82,-183.88 155,-192 159.11,-194.74 163.78,-197.04 168.49,-199.02"/>
<polygon fill="#000000" fill-opacity="0.200000" stroke="#000000" stroke-width="2" stroke-opacity="0.200000" points="175.11,-203.76 181.47,-203.92 176.59,-199.84 175.11,-203.76"/>
<polyline fill="none" stroke="#000000" stroke-width="2" stroke-opacity="0.200000" points="175.85,-201.8 173.05,-200.74 "/>
<ellipse fill="none" stroke="#000000" stroke-width="2" stroke-opacity="0.200000" cx="170.8" cy="-199.89" rx="2.4" ry="2.4"/>
</g>
<!-- popup/scripts/MeetingHistory.js -->
<g id="node9" class="node">
<title>popup/scripts/MeetingHistory.js</title>
<g id="a_node9"><a xlink:href="popup/scripts/MeetingHistory.js" xlink:title="MeetingHistory.js">
<path fill="#ffffcc" stroke="black" d="M237,-192C237,-192 162,-192 162,-192 159,-192 156,-189 156,-186 156,-186 156,-180 156,-180 156,-177 159,-174 162,-174 162,-174 237,-174 237,-174 240,-174 243,-177 243,-180 243,-180 243,-186 243,-186 243,-189 240,-192 237,-192"/>
<text text-anchor="middle" x="199.5" y="-180.8" font-family="Helvetica,sans-Serif" font-size="9.00">MeetingHistory.js</text>
</a>
</g>
</g>
<!-- popup/scripts/internal.js&#45;&gt;popup/scripts/MeetingHistory.js -->
<g id="edge13" class="edge">
<title>popup/scripts/internal.js&#45;&gt;popup/scripts/MeetingHistory.js</title>
<path fill="none" stroke="#000000" stroke-width="2" stroke-opacity="0.200000" d="M142.07,-157.34C146.39,-158.87 150.81,-160.49 155,-162 160.92,-164.13 167.31,-166.37 173.33,-168.62"/>
<polygon fill="#000000" fill-opacity="0.200000" stroke="#000000" stroke-width="2" stroke-opacity="0.200000" points="179.93,-173.56 186.28,-173.87 181.51,-169.67 179.93,-173.56"/>
<polyline fill="none" stroke="#000000" stroke-width="2" stroke-opacity="0.200000" points="180.72,-171.61 177.94,-170.49 "/>
<ellipse fill="none" stroke="#000000" stroke-width="2" stroke-opacity="0.200000" cx="175.71" cy="-169.59" rx="2.4" ry="2.4"/>
</g>
<!-- popup/scripts/SpeakingUtil.js -->
<g id="node10" class="node">
<title>popup/scripts/SpeakingUtil.js</title>
<g id="a_node10"><a xlink:href="popup/scripts/SpeakingUtil.js" xlink:title="SpeakingUtil.js">
<path fill="#ffffcc" stroke="black" d="M232.5,-252C232.5,-252 166.5,-252 166.5,-252 163.5,-252 160.5,-249 160.5,-246 160.5,-246 160.5,-240 160.5,-240 160.5,-237 163.5,-234 166.5,-234 166.5,-234 232.5,-234 232.5,-234 235.5,-234 238.5,-237 238.5,-240 238.5,-240 238.5,-246 238.5,-246 238.5,-249 235.5,-252 232.5,-252"/>
<text text-anchor="middle" x="199.5" y="-240.8" font-family="Helvetica,sans-Serif" font-size="9.00">SpeakingUtil.js</text>
</a>
</g>
</g>
<!-- popup/scripts/internal.js&#45;&gt;popup/scripts/SpeakingUtil.js -->
<g id="edge15" class="edge">
<title>popup/scripts/internal.js&#45;&gt;popup/scripts/SpeakingUtil.js</title>
<path fill="none" stroke="#000000" stroke-width="2" stroke-opacity="0.200000" d="M118.76,-162.16C124.14,-177 135.58,-205.43 155,-222 158.13,-224.67 161.77,-226.88 165.58,-228.75"/>
<polygon fill="#000000" fill-opacity="0.200000" stroke="#000000" stroke-width="2" stroke-opacity="0.200000" points="172.36,-233.7 178.71,-233.97 173.92,-229.8 172.36,-233.7"/>
<polyline fill="none" stroke="#000000" stroke-width="2" stroke-opacity="0.200000" points="173.14,-231.75 170.35,-230.64 "/>
<ellipse fill="none" stroke="#000000" stroke-width="2" stroke-opacity="0.200000" cx="168.12" cy="-229.76" rx="2.4" ry="2.4"/>
</g>
<!-- popup/scripts/Util.js -->
<g id="node11" class="node">
<title>popup/scripts/Util.js</title>
<g id="a_node11"><a xlink:href="popup/scripts/Util.js" xlink:title="Util.js">
<path fill="#ffffcc" stroke="black" d="M220.5,-282C220.5,-282 178.5,-282 178.5,-282 175.5,-282 172.5,-279 172.5,-276 172.5,-276 172.5,-270 172.5,-270 172.5,-267 175.5,-264 178.5,-264 178.5,-264 220.5,-264 220.5,-264 223.5,-264 226.5,-267 226.5,-270 226.5,-270 226.5,-276 226.5,-276 226.5,-279 223.5,-282 220.5,-282"/>
<text text-anchor="middle" x="199.5" y="-270.8" font-family="Helvetica,sans-Serif" font-size="9.00">Util.js</text>
</a>
</g>
</g>
<!-- popup/scripts/internal.js&#45;&gt;popup/scripts/Util.js -->
<g id="edge16" class="edge">
<title>popup/scripts/internal.js&#45;&gt;popup/scripts/Util.js</title>
<path fill="none" stroke="#000000" stroke-width="2" stroke-opacity="0.200000" d="M115.92,-162.28C118.41,-182.53 127.12,-230.99 155,-258 158.23,-261.13 162.15,-263.61 166.3,-265.58"/>
<polygon fill="#000000" fill-opacity="0.200000" stroke="#000000" stroke-width="2" stroke-opacity="0.200000" points="165.7,-267.6 172.05,-267.95 167.3,-263.72 165.7,-267.6"/>
</g>
<!-- popup/scripts/AnalysisPage.js&#45;&gt;popup/scripts/internal.js -->
<g id="edge2" class="edge">
<title>popup/scripts/AnalysisPage.js&#45;&gt;popup/scripts/internal.js</title>
<path fill="none" stroke="#000000" stroke-width="2" stroke-opacity="0.200000" d="M177.02,-42.07C169.27,-44.66 160.97,-48.22 155,-54 133.7,-74.63 123.59,-107.78 118.89,-130.06"/>
<polygon fill="#000000" fill-opacity="0.200000" stroke="#000000" stroke-width="2" stroke-opacity="0.200000" points="115.41,-137.45 116.39,-143.73 119.54,-138.21 115.41,-137.45"/>
<polyline fill="none" stroke="#000000" stroke-width="2" stroke-opacity="0.200000" points="117.47,-137.83 118.01,-134.88 "/>
<ellipse fill="none" stroke="#000000" stroke-width="2" stroke-opacity="0.200000" cx="118.44" cy="-132.52" rx="2.4" ry="2.4"/>
</g>
<!-- popup/scripts/CurrentMeeting.js&#45;&gt;popup/scripts/internal.js -->
<g id="edge3" class="edge">
<title>popup/scripts/CurrentMeeting.js&#45;&gt;popup/scripts/internal.js</title>
<path fill="none" stroke="#000000" stroke-width="2" stroke-opacity="0.200000" d="M181.47,-102.08C173.03,-105.05 162.98,-108.68 155,-114 147.2,-119.2 139.96,-126.28 133.84,-133.03"/>
<polygon fill="#000000" fill-opacity="0.200000" stroke="#000000" stroke-width="2" stroke-opacity="0.200000" points="127.01,-137.75 124.7,-143.67 130.2,-140.49 127.01,-137.75"/>
<polyline fill="none" stroke="#000000" stroke-width="2" stroke-opacity="0.200000" points="128.6,-139.12 130.56,-136.85 "/>
<ellipse fill="none" stroke="#000000" stroke-width="2" stroke-opacity="0.200000" cx="132.12" cy="-135.02" rx="2.4" ry="2.4"/>
</g>
<!-- popup/scripts/Main.js&#45;&gt;popup/scripts/internal.js -->
<g id="edge4" class="edge">
<title>popup/scripts/Main.js&#45;&gt;popup/scripts/internal.js</title>
<path fill="none" stroke="#000000" stroke-width="2" stroke-opacity="0.200000" d="M172.23,-157.21C167.18,-157.41 161.77,-157.5 156.37,-157.5"/>
<polygon fill="#000000" fill-opacity="0.200000" stroke="#000000" stroke-width="2" stroke-opacity="0.200000" points="148.38,-155.26 142.34,-157.25 148.3,-159.46 148.38,-155.26"/>
<polyline fill="none" stroke="#000000" stroke-width="2" stroke-opacity="0.200000" points="148.34,-157.36 151.34,-157.41 "/>
<ellipse fill="none" stroke="#000000" stroke-width="2" stroke-opacity="0.200000" cx="153.74" cy="-157.45" rx="2.4" ry="2.4"/>
</g>
<!-- popup/scripts/MeetStorage.js&#45;&gt;popup/scripts/internal.js -->
<g id="edge5" class="edge">
<title>popup/scripts/MeetStorage.js&#45;&gt;popup/scripts/internal.js</title>
<path fill="none" stroke="#000000" stroke-width="2" stroke-opacity="0.200000" d="M160.44,-207.22C158.55,-206.23 156.73,-205.15 155,-204 143.5,-196.33 133.22,-184.59 125.95,-174.19"/>
<polygon fill="#000000" fill-opacity="0.200000" stroke="#000000" stroke-width="2" stroke-opacity="0.200000" points="123.45,-166.15 118.51,-162.15 119.88,-168.36 123.45,-166.15"/>
<polyline fill="none" stroke="#000000" stroke-width="2" stroke-opacity="0.200000" points="121.66,-167.26 123.24,-169.81 "/>
<ellipse fill="none" stroke="#000000" stroke-width="2" stroke-opacity="0.200000" cx="124.5" cy="-171.85" rx="2.4" ry="2.4"/>
</g>
<!-- popup/scripts/MeetingHistory.js&#45;&gt;popup/scripts/internal.js -->
<g id="edge6" class="edge">
<title>popup/scripts/MeetingHistory.js&#45;&gt;popup/scripts/internal.js</title>
<path fill="none" stroke="#000000" stroke-width="2" stroke-opacity="0.200000" d="M155.91,-174.33C155.6,-174.22 155.3,-174.11 155,-174 149.74,-172.11 144.1,-170.03 138.77,-167.88"/>
<polygon fill="#000000" fill-opacity="0.200000" stroke="#000000" stroke-width="2" stroke-opacity="0.200000" points="132.17,-162.65 125.84,-162.13 130.47,-166.49 132.17,-162.65"/>
<polyline fill="none" stroke="#000000" stroke-width="2" stroke-opacity="0.200000" points="131.32,-164.57 134.06,-165.79 "/>
<ellipse fill="none" stroke="#000000" stroke-width="2" stroke-opacity="0.200000" cx="136.25" cy="-166.76" rx="2.4" ry="2.4"/>
</g>
<!-- popup/scripts/SpeakingUtil.js&#45;&gt;popup/scripts/internal.js -->
<g id="edge7" class="edge">
<title>popup/scripts/SpeakingUtil.js&#45;&gt;popup/scripts/internal.js</title>
<path fill="none" stroke="#000000" stroke-width="2" stroke-opacity="0.200000" d="M160.5,-237.95C158.55,-236.77 156.7,-235.45 155,-234 137.29,-218.88 126.21,-193.9 120.32,-175.56"/>
<polygon fill="#000000" fill-opacity="0.200000" stroke="#000000" stroke-width="2" stroke-opacity="0.200000" points="120.2,-167.29 116.56,-162.07 116.15,-168.42 120.2,-167.29"/>
<polyline fill="none" stroke="#000000" stroke-width="2" stroke-opacity="0.200000" points="118.17,-167.85 118.98,-170.74 "/>
<ellipse fill="none" stroke="#000000" stroke-width="2" stroke-opacity="0.200000" cx="119.62" cy="-173.05" rx="2.4" ry="2.4"/>
</g>
<!-- popup/test.js -->
<g id="node12" class="node">
<title>popup/test.js</title>
<g id="a_node12"><a xlink:href="popup/test.js" xlink:title="test.js">
<path fill="#ccffcc" stroke="black" d="M64,-83C64,-83 22,-83 22,-83 19,-83 16,-80 16,-77 16,-77 16,-71 16,-71 16,-68 19,-65 22,-65 22,-65 64,-65 64,-65 67,-65 70,-68 70,-71 70,-71 70,-77 70,-77 70,-80 67,-83 64,-83"/>
<text text-anchor="middle" x="43" y="-71.8" font-family="Helvetica,sans-Serif" font-size="9.00">test.js</text>
</a>
</g>
</g>
</g>
</svg>
